{"title":"Skyfall 2012 TS XViD UNiQUE","uid":7818809,"size":1565623814,"categoryP":"video","categoryS":"movies","magnet":"?xt=urn:btih:a5126ed586e9a68896ed1ed3b700887c506b9d2b&amp;dn=Skyfall+2012+TS+XViD+UNiQUE&amp;tr=udp%3A%2F%2Ftracker.openbittorrent.com%3A80&amp;tr=udp%3A%2F%2Fopen.demonii.com%3A1337&amp;tr=udp%3A%2F%2Ftracker.coppersurfer.tk%3A6969&amp;tr=udp%3A%2F%2Fexodus.desync.com%3A6969","seeders":0,"leechers":0,"uploader":"tykoon123","files":5,"time":1352745387,"description":"Poster: &lt;a href=&quot;\nhttp://imgr.us/images/ovshq9n1kzeahnu70cup.jpg&quot; rel=&quot;nofollow&quot; target=&quot;_NEW&quot;&gt;\nhttp://imgr.us/images/ovshq9n1kzeahnu70cup.jpg&lt;/a&gt;\n\nInfo:\nFormat : AVI\nFormat/Info : Audio Video Interleave\nFile size : 1.43 GiB\nDuration : 2h 17mn\nOverall bit rate : 1 487 Kbps\nWriting application : VirtualDubMod 1.5.10.2 (build 2540/release)\nWriting library : VirtualDub build 34807/release\n\nVideo\nID : 0\nFormat : MPEG-4 Visual\nFormat profile : Advanced Simple@L5\nFormat settings, BVOP : 2\nFormat settings, QPel : No\nFormat settings, GMC : No warppoints\nFormat settings, Matrix : Default (H.263)\nMuxing mode : Packed bitstream\nCodec ID : XVID\nCodec ID/Hint : XviD\nDuration : 2h 17mn\nBit rate : 1 349 Kbps\nWidth : 640 pixels\nHeight : 272 pixels\nDisplay aspect ratio : 2.35:1\nFrame rate : 25.000 fps\nColor space : YUV\nChroma subsampling : 4:2:0\nBit depth : 8 bits\nScan type : Progressive\nCompression mode : Lossy\nBits/(Pixel*Frame) : 0.310\nStream size : 1.29 GiB (91%)\nWriting library : XviD 64\n\nAudio\nID : 1\nFormat : MPEG Audio\nFormat version : Version 1\nFormat profile : Layer 3\nCodec ID : 55\nCodec ID/Hint : MP3\nDuration : 2h 17mn\nBit rate mode : Constant\nBit rate : 128 Kbps\nChannel(s) : 2 channels\nSampling rate : 48.0 KHz\nCompression mode : Lossy\nStream size : 126 MiB (9%)\nAlignment : Split accross interleaves\nInterleave, duration : 40 ms (1.00 video frame)\nInterleave, preload duration : 500 ms\n\n\nScreens: &lt;a href=&quot;\nhttp://imgr.us/images/9ikh7zyt9xyern6el0.png&quot; rel=&quot;nofollow&quot; target=&quot;_NEW&quot;&gt;\nhttp://imgr.us/images/9ikh7zyt9xyern6el0.png&lt;/a&gt; &lt;a href=&quot;\nhttp://imgr.us/images/nwui4d0imy6v1kxhu837.png&quot; rel=&quot;nofollow&quot; target=&quot;_NEW&quot;&gt;\nhttp://imgr.us/images/nwui4d0imy6v1kxhu837.png&lt;/a&gt; &lt;a href=&quot;\nhttp://imgr.us/images/589ixmwc1pkhluqydb.png&quot; rel=&quot;nofollow&quot; target=&quot;_NEW&quot;&gt;\nhttp://imgr.us/images/589ixmwc1pkhluqydb.png&lt;/a&gt; &lt;a href=&quot;\nhttp://imgr.us/images/dy9i84mchjclt5l26zie.png&quot; rel=&quot;nofollow&quot; target=&quot;_NEW&quot;&gt;\nhttp://imgr.us/images/dy9i84mchjclt5l26zie.png&lt;/a&gt;","torrent":{"xt":"urn:btih:a5126ed586e9a68896ed1ed3b700887c506b9d2b","amp;dn":"Skyfall+2012+TS+XViD+UNiQUE","amp;tr":["udp%3A%2F%2Ftracker.openbittorrent.com%3A80","udp%3A%2F%2Fopen.demonii.com%3A1337","udp%3A%2F%2Ftracker.coppersurfer.tk%3A6969","udp%3A%2F%2Fexodus.desync.com%3A6969"],"infoHash":"a5126ed586e9a68896ed1ed3b700887c506b9d2b","infoHashBuffer":{"type":"Buffer","data":[165,18,110,213,134,233,166,136,150,237,30,211,183,0,136,124,80,107,157,43]},"announce":[],"urlList":[]}}